<svg width="19" height="19" viewBox="0 0 19 19" fill="none" xmlns="http://www.w3.org/2000/svg">
<path d="M0 9.8C0 4.7188 4.1188 0.6 9.2 0.6C14.2812 0.6 18.4 4.7188 18.4 9.8C18.4 14.8812 14.2812 19 9.2 19C4.1188 19 0 14.8812 0 9.8ZM12.95 6.6264C12.4308 6.4572 7.2564 5.6644 6.2368 5.5664C5.928 5.5368 5.7228 5.6344 5.6312 5.8256C5.52 6.0568 5.5756 6.3992 5.7188 6.7964C5.9152 7.3412 8.8724 14.306 9.0436 14.7084C9.2056 15.09 9.3824 15.4508 9.6384 15.4508C9.8184 15.4508 9.9196 15.344 10.0248 15.0496C10.134 14.7432 10.368 13.9716 10.4936 13.516C10.6148 13.0772 10.5096 12.5776 10.3356 12.2976C10.1512 12.0008 7.8592 8.5756 7.6584 8.3296C7.4576 8.084 7.7148 7.888 7.916 8.0888C8.1168 8.2896 10.3988 10.6408 10.7148 10.9508C11.0984 11.3272 11.496 11.06 11.6552 10.8076C11.8368 10.5192 13.228 8.4452 13.4512 8.1328C13.6744 7.8204 13.7756 7.5036 13.7756 7.2136C13.7756 6.9236 13.3936 6.7708 12.95 6.6264Z" fill="white"/>
</svg>
